Coordinates
version=1
nRows=17
nColumns=36
inDegrees=yes

Units are S.I. units (second, meters, Newtons, ...)
If the header above contains a line with 'inDegrees', this indicates whether rotational values are in degrees (yes) or radians (no).

endheader
time	pelvis_tilt	pelvis_list	pelvis_rotation	pelvis_tx	pelvis_ty	pelvis_tz	hip_flexion_r	hip_adduction_r	hip_rotation_r	knee_angle_r	knee_angle_r_beta	ankle_angle_r	subtalar_angle_r	mtp_angle_r	hip_flexion_l	hip_adduction_l	hip_rotation_l	knee_angle_l	knee_angle_l_beta	ankle_angle_l	subtalar_angle_l	mtp_angle_l	lumbar_extension	lumbar_bending	lumbar_rotation	arm_flex_r	arm_add_r	arm_rot_r	elbow_flex_r	pro_sup_r	arm_flex_l	arm_add_l	arm_rot_l	elbow_flex_l	pro_sup_l
      1.99583330	    -20.01154393	      3.34766963	      0.11963545	      0.23557007	      0.90451655	     -0.07372296	     35.71925753	    -13.95624144	     -6.60868185	     33.08770632	      0.57748942	      3.19215006	     13.78569690	     -7.49999987	     36.86933835	     -7.58406669	    -11.99997753	     32.19972203	      0.56199117	     -6.21549896	      0.62662033	     -7.49999987	     -2.59329080	      2.44753084	     -0.26502984	    133.85499195	    -47.26980930	     48.27002995	    123.03012628	     90.09097320	     58.56301609	    -79.55473772	    -20.56491016	    146.21954108	     84.23648033
      2.00000000	    -19.46219991	      3.39440926	      0.21020863	      0.23942423	      0.91642145	     -0.06890303	     33.62771529	    -13.51057344	     -6.99064234	     30.82570209	      0.53801000	      1.42259416	     14.35868610	     -7.49999987	     34.42378939	     -7.47265639	    -12.53615737	     29.13375191	      0.50847989	     -8.61245519	      2.70925782	     -7.49999987	     -2.44420501	      2.05150566	     -0.96854773	    133.34077807	    -47.09391176	     48.95281867	    122.58171091	     88.29598747	     59.31299022	    -81.47017827	    -19.38357745	    145.38730604	     81.81222420
      2.00416670	    -19.11722091	      3.24905578	      0.46612780	      0.24949143	      0.92760996	     -0.06192006	     31.22402523	    -12.88739324	     -7.94086921	     27.94793495	      0.48778348	     -0.56381024	     15.23700659	     -7.49999987	     31.86818332	     -7.72002085	    -13.63490662	     25.50948652	      0.44522453	    -11.24047651	      4.92365978	     -7.49999987	     -1.30898647	      1.32930206	      0.17444557	    134.04103723	    -49.15505901	     50.63616859	    122.98517404	     89.27580778	     80.49983646	    -78.89462060	      5.62891656	    143.64846096	     83.30033854
      2.00833330	    -18.85188404	      2.72827064	      0.93210068	      0.25297823	      0.93512337	     -0.05917246	     28.96856521	    -11.95639814	     -9.17137112	     25.13488266	      0.43868646	     -3.06156314	     15.29811919	     -7.49999987	     29.26703297	     -8.08822424	    -14.79790135	     21.26691783	      0.37117774	    -14.58297609	      7.20946568	     -7.49999987	     -0.45686243	      1.65594896	     -0.60619547	    133.98800586	    -48.10397680	     50.95493014	    121.81904077	     89.32256170	     80.67081778	    -79.65020944	      6.53161928	    142.41879622	     83.32498735
      2.01250000	    -18.48809293	      2.39943285	      1.39835602	      0.25736499	      0.94564085	     -0.06613300	     26.65953519	    -11.37300951	    -10.05146320	     22.10249071	      0.38576124	     -5.77221427	     15.04884184	     -7.49999987	     26.65323402	     -7.79923444	    -16.01534704	     17.18281179	      0.29989664	    -17.40247570	      8.87488257	     -7.49999987	      0.30715009	      1.47787363	     -0.64943527	    132.21894039	    -49.31136201	     49.77763015	    121.95383670	     90.87696769	     91.79648889	    -78.28094806	     19.38499273	    140.94726108	     83.15241335
      2.01666670	    -18.35410129	      2.03492611	      1.78087510	      0.26032970	      0.95014593	     -0.06287021	     24.40925145	    -10.44597733	    -10.29059628	     18.44829260	      0.32198345	     -8.30538266	     14.23737020	     -7.49999987	     24.89811525	     -7.74217997	    -16.80349511	     14.03820675	      0.24501293	    -20.35951765	      9.39774420	     -7.49999987	      1.13142940	      1.95727212	     -1.26017944	    133.16950052	    -48.78650480	     51.38284875	    120.68287953	     90.21940594	     93.14279109	    -78.11502018	     20.71783652	    139.54221787	     83.27531749
      2.02083330	    -18.39369333	      1.96167285	      2.18187213	      0.26442100	      0.95557314	     -0.06870410	     22.73182709	    -10.07370619	    -10.29409116	     15.43525620	      0.26939604	    -11.07056509	     12.67033548	     -7.49999987	     23.67429279	     -7.16400649	    -16.54307164	     11.34896227	      0.19807676	    -23.05172849	     10.18683303	     -7.49999987	      1.82326785	      1.76469417	     -0.86876125	    136.53231592	    -50.12094642	     54.40994011	    119.43556778	     89.67208902	    103.79847231	    -76.75171427	     32.11063108	    137.95718449	     83.72560436
      2.02500000	    -18.47776711	      1.83872258	      2.41173089	      0.26363915	      0.96665964	     -0.06847171	     21.53255064	     -9.63093144	    -10.18185440	     12.59580538	      0.21983828	    -14.57770305	     11.56876197	     -7.49999987	     22.88390074	     -6.79343799	    -15.24500511	      8.96643166	      0.15649375	    -26.31691718	     10.35370501	     -7.49999987	      2.25757324	      2.03253978	     -1.15331195	    137.34393733	    -49.67026128	     55.15359549	    118.26760701	     87.79603971	    104.22671104	    -77.58070874	     32.15477054	    137.69648484	     82.10978986
      2.02916670	    -18.31286108	      1.52360129	      2.42817006	      0.26875354	      0.97778541	     -0.06561142	     20.26665782	     -8.70695160	    -10.23786523	      9.99566162	      0.17445721	    -18.61697777	     10.76783834	     -7.49999987	     21.73637206	     -6.93212089	    -13.51737189	      6.42180213	      0.11208159	    -29.73500957	     11.19037962	     -7.49999987	      2.62921127	      2.44830785	     -1.58862643	    136.31162972	    -49.25410253	     55.11545759	    117.75682552	     87.30964727	    103.19579687	    -77.42422038	     31.78335668	    136.71626720	     81.49005301
      2.03333330	    -18.24691616	      1.15060920	      2.50881831	      0.27215923	      0.98228530	     -0.06994834	     19.35852583	     -8.10194730	    -10.63500596	      7.87192173	      0.13739095	    -22.23595948	      9.78320162	     -7.49999987	     20.80151453	     -7.03129587	    -11.98837247	      4.15716312	      0.07255618	    -32.25719283	     11.27240105	     -7.49999987	      3.05109974	      3.05701093	     -1.76067321	    137.70424324	    -48.72243551	     56.44669007	    116.05621728	     87.69133099	    104.06011332	    -77.52045676	     31.93961353	    136.25651602	     81.60514480
      2.03750000	    -18.29169899	      0.94206344	      2.38527027	      0.27259509	      0.98882155	     -0.06994485	     18.68645878	     -7.71121652	    -11.00926998	      5.65340660	      0.09867056	    -26.01941759	     10.05526782	     -7.49999987	     19.99036637	     -7.08317728	    -10.41286346	      2.37160443	      0.04139231	    -34.50624561	     10.34614768	     -7.49999987	      3.19210267	      3.40460770	     -1.64428018	    140.98171008	    -48.31438272	     59.32529056	    114.32433510	     88.44378487	    106.53347074	    -78.40954157	     33.15181924	    135.93966949	     81.77344623
      2.04166670	    -18.43309539	      0.77790943	      2.41498969	      0.27144011	      0.99522085	     -0.06876887	     18.16036846	     -7.33194329	    -11.20436273	      3.38588224	      0.05909479	    -29.07572249	     10.00561970	     -7.49999987	     19.64651665	     -6.85262163	    -10.07525005	      1.24491451	      0.02172786	    -36.24659082	      8.27925445	     -7.49999987	      3.52939434	      3.16796707	     -1.59037403	    141.82594398	    -48.99320449	     60.28249152	    113.47383533	     87.73199926	    114.35333974	    -77.55760617	     40.17370891	    134.49926335	     81.15893849
      2.04583330	    -18.83105878	      0.66088106	      2.78445726	      0.27149679	      1.00424603	     -0.06970444	     17.91798977	     -7.20213477	    -11.57199024	      1.43516368	      0.02504833	    -31.43318286	     10.15923440	     -7.49999987	     19.94378087	     -6.49175504	    -10.74630417	      0.66908835	      0.01167779	    -36.84659803	      6.50689690	     -7.49999987	      4.05970246	      3.17545840	     -2.03994662	    142.18805544	    -48.89139965	     60.69878273	    112.55171332	     85.39056106	    114.03886013	    -76.44448174	     38.96451180	    132.93179114	     78.98235102
      2.05000000	    -19.33755812	      0.92988883	      2.65417745	      0.27795414	      1.01515637	     -0.06953976	     18.02054288	     -7.26007824	    -12.03139637	      0.45167252	      0.00788317	    -32.43884638	     10.03157583	     -7.49999987	     20.05511596	     -6.09937294	    -11.60838302	      0.44661125	      0.00779484	    -36.40370826	      5.91506415	     -7.49999987	      4.81085896	      2.69461112	     -2.29728175	    141.93116920	    -49.21556709	     60.74048173	    112.09275120	     83.83932632	    113.20202078	    -77.26779555	     37.85456361	    131.82025095	     77.51031171
      2.05416670	    -19.90992584	      1.05343822	      2.62442428	      0.28189303	      1.02299734	     -0.06603724	     18.34663762	     -7.12978814	    -12.49155339	      0.25791223	      0.00450142	    -32.54950836	      8.96858012	     -7.49999987	     20.38113243	     -5.78897097	    -12.57648088	      0.35831484	      0.00625377	    -36.90415387	      4.82130058	     -7.49999987	      5.89212605	      2.22582646	     -2.35667166	    142.32843100	    -49.50639516	     61.05549204	    111.52216010	     83.16969913	    112.96882601	    -77.70748964	     38.04883493	    131.22266792	     77.03556184
      2.05833330	    -19.88633348	      1.08617964	      2.46422184	      0.28453699	      1.03059092	     -0.06164705	     17.97450486	     -6.60346707	    -12.94394616	      0.19828843	      0.00346079	    -32.47526238	      8.42533845	     -7.49999987	     19.91856627	     -5.71269981	    -13.41900156	      0.32152525	      0.00561167	    -37.87144980	      4.23739560	     -7.49999987	      5.87769513	      1.88012957	     -3.34779259	    143.04204067	    -49.12951612	     62.22721862	    111.31500236	     88.48498246	    126.10724362	    -80.68168374	     51.24976786	    130.78325509	     80.39457978
      2.06250000	    -20.05096344	      0.94477422	      2.29247676	      0.28056457	      1.03642488	     -0.06701422	     17.89550289	     -6.10851358	    -13.39834693	      0.18546676	      0.00323701	    -32.56255252	      6.92915571	     -7.49999987	     19.90106234	     -5.48432836	    -14.47120334	      0.30140671	      0.00526054	    -38.92144435	      3.54047733	     -7.49999987	      6.20424555	      2.01895304	     -3.08822331	    144.63240389	    -49.68156515	     65.05010434	    110.15050584	     87.45740640	    127.15226766	    -80.27580446	     51.83338647	    129.73353574	     79.09113828
